<svg width="32" height="32" viewBox="0 0 32 32" fill="none" xmlns="http://www.w3.org/2000/svg">
<mask id="mask0_1420_296" style="mask-type:alpha" maskUnits="userSpaceOnUse" x="0" y="0" width="32" height="32">
<rect width="32" height="32" fill="#FF0000"/>
</mask>
<g mask="url(#mask0_1420_296)">
<path fill-rule="evenodd" clip-rule="evenodd" d="M31.5971 8.60092L31.6599 8.7674L31.7177 8.93556L31.7705 9.10525L31.8185 9.27634L31.8615 9.44868L31.8998 9.62214L31.9333 9.79657L31.9621 9.97184L31.9864 10.1478L32.0063 10.3243L32.0219 10.5013L32.0335 10.6786L32.0412 10.8561L32.0452 11.0336L32.0458 11.2112L32.043 11.3886L32.0373 11.5659L32.0288 11.7429L32.0177 11.9196L32.0043 12.096L31.9889 12.2719L31.9716 12.4474L31.9529 12.6225L31.9328 12.7971L31.9118 12.9712L31.8899 13.145L31.8675 13.3183L31.8449 13.4913L31.8221 13.664L31.7995 13.8364L31.7772 14.0087L31.7554 14.1808L31.7344 14.353L31.7143 14.5252L31.6952 14.6976L31.6773 14.8702L31.6607 15.0433L31.6455 15.2168L31.6318 15.3909L31.6196 15.5658L31.609 15.7415L31.6 15.9181L31.5926 16.0958L31.5868 16.2747L31.5826 16.4548L31.5798 16.6362L31.5784 16.8192L31.5783 17.0036L31.5795 17.1897L31.5817 17.3774L31.585 17.5669L31.589 17.7582L31.5938 17.9513L31.599 18.1463L31.6046 18.3432L31.6103 18.542L31.616 18.7428L31.6214 18.9455L31.6264 19.15L31.6307 19.3564L31.6341 19.5647L31.6364 19.7747L31.6373 19.9864L31.6366 20.1997L31.6342 20.4146L31.6297 20.6309L31.6229 20.8485L31.6136 21.0673L31.6016 21.2871L31.5867 21.5079L31.5686 21.7294L31.5471 21.9516L31.5221 22.1741L31.4933 22.3969L31.4606 22.6198L31.4238 22.8425L31.3826 23.0649L31.3371 23.2868L31.2869 23.508L31.232 23.7282L31.1723 23.9472L31.1077 24.1649L31.038 24.3809L30.9632 24.5952L30.8832 24.8074L30.7979 25.0174L30.7074 25.2249L30.6116 25.4298L30.5104 25.6319L30.404 25.8309L30.2922 26.0266L30.1752 26.2189L30.053 26.4076L29.9255 26.5926L29.793 26.7735L29.6555 26.9504L29.513 27.1231L29.3657 27.2914L29.2137 27.4553L29.0572 27.6147L28.8963 27.7695L28.7312 27.9196L28.5621 28.0651L28.3891 28.2059L28.2124 28.3421L28.0322 28.4736L27.8488 28.6004L27.6622 28.7227L27.4728 28.8405L27.2807 28.9539L27.0861 29.0629L26.8892 29.1677L26.6902 29.2683L26.4893 29.365L26.2866 29.4577L26.0824 29.5468L25.8768 29.6322L25.67 29.7141L25.4621 29.7927L25.2532 29.8682L25.0436 29.9407L24.8332 30.0103L24.6223 30.0773L24.4109 30.1416L24.1992 30.2036L23.9871 30.2633L23.7749 30.3208L23.5624 30.3763L23.3499 30.4299L23.1373 30.4818L22.9247 30.5318L22.7121 30.5803L22.4995 30.6272L22.2869 30.6726L22.0744 30.7165L21.8618 30.7589L21.6493 30.8L21.4369 30.8395L21.2244 30.8777L21.0119 30.9144L20.7994 30.9496L20.5868 30.9834L20.3742 31.0155L20.1615 31.0462L19.9488 31.0751L19.736 31.1024L19.5231 31.128L19.31 31.1516L19.0969 31.1734L18.8837 31.1932L18.6704 31.2109L18.457 31.2264L18.2435 31.2396L18.0299 31.2504L17.8163 31.2587L17.6026 31.2644L17.389 31.2675L17.1754 31.2677L16.9619 31.265L16.7485 31.2592L16.5352 31.2504L16.3222 31.2383L16.1095 31.2229L15.8971 31.204L15.6852 31.1816L15.4737 31.1556L15.2628 31.1259L15.0525 31.0924L14.843 31.0551L14.6343 31.0139L14.4264 30.9686L14.2196 30.9194L14.0138 30.8661L13.8093 30.8087L13.606 30.7472L13.404 30.6815L13.2036 30.6117L13.0047 30.5377L12.8075 30.4595L12.612 30.3772L12.4184 30.2908L12.2268 30.2003L12.0371 30.1057L11.8496 30.0072L11.6644 29.9047L11.4814 29.7984L11.3008 29.6882L11.1226 29.5743L10.9469 29.4569L10.7738 29.3359L10.6033 29.2116L10.4354 29.0841L10.2702 28.9536L10.1076 28.8201L9.94779 28.684L9.79063 28.5453L9.63616 28.4042L9.48434 28.261L9.33515 28.1158L9.18855 27.9688L9.04449 27.8202L8.90291 27.6702L8.76375 27.519L8.62693 27.3667L8.49238 27.2135L8.36 27.0597L8.22971 26.9054L8.10141 26.7507L7.97499 26.5958L7.85035 26.4409L7.72737 26.2861L7.60593 26.1315L7.48594 25.9773L7.36725 25.8235L7.24976 25.6703L7.13335 25.5178L7.01789 25.366L6.90327 25.215L6.78936 25.0649L6.67605 24.9158L6.56323 24.7676L6.45079 24.6204L6.33861 24.4743L6.2266 24.3292L6.11464 24.1852L6.00266 24.0423L5.89054 23.9003L5.77821 23.7594L5.66558 23.6195L5.5526 23.4805L5.43918 23.3425L5.32528 23.2052L5.21086 23.0688L5.09588 22.9331L4.98031 22.7979L4.86414 22.6634L4.74736 22.5292L4.62997 22.3954L4.51199 22.2619L4.39344 22.1285L4.27435 21.9952L4.15476 21.8618L4.03473 21.7282L3.91432 21.5943L3.79359 21.4601L3.67263 21.3253L3.55153 21.1899L3.43036 21.0538L3.30925 20.9168L3.1883 20.779L3.06762 20.6401L2.94733 20.5L2.82757 20.3588L2.70847 20.2163L2.59016 20.0723L2.47278 19.927L2.35649 19.7801L2.24142 19.6316L2.12773 19.4815L2.01557 19.3297L1.90509 19.1762L1.79644 19.0209L1.68978 18.8639L1.58525 18.705L1.48302 18.5443L1.38321 18.3818L1.286 18.2175L1.1915 18.0513L1.09988 17.8834L1.01125 17.7136L0.925764 17.5422L0.843535 17.369L0.764688 17.1941L0.68934 17.0177L0.617602 16.8397L0.549577 16.6601L0.485365 16.4792L0.425058 16.2968L0.368746 16.1132L0.31652 15.9284L0.26847 15.7424L0.224683 15.5554L0.185248 15.3674L0.150247 15.1785L0.119764 14.9889L0.0938763 14.7986L0.0726595 14.6077L0.0561844 14.4163L0.0445171 14.2245L0.037719 14.0326L0.035846 13.8404L0.0389481 13.6483L0.0470691 13.4562L0.0602467 13.2643L0.0785115 13.0728L0.101887 12.8817L0.130389 12.6913L0.164027 12.5015L0.202801 12.3126L0.246704 12.1246L0.295721 11.9377L0.349828 11.7521L0.408994 11.5678L0.473179 11.3849L0.542333 11.2037L0.616401 11.0241L0.695318 10.8464L0.779009 10.6707L0.867395 10.4969L0.960384 10.3254L1.05788 10.1561L1.15978 9.98926L1.26597 9.82484L1.37633 9.66298L1.49073 9.50377L1.60905 9.34728L1.73114 9.19361L1.85685 9.0428L1.98604 8.89493L2.11855 8.75005L2.2542 8.60821L2.39283 8.46944L2.53426 8.33379L2.6783 8.20126L2.82477 8.07189L2.97347 7.94567L3.1242 7.8226L3.27677 7.70266L3.43097 7.58585L3.58659 7.47212L3.74343 7.36144L3.90128 7.25376L4.05994 7.14902L4.2192 7.04716L4.37886 6.94809L4.53871 6.85175L4.69855 6.75802L4.85819 6.66682L5.01744 6.57803L5.17611 6.49155L5.33401 6.40724L5.49098 6.32497L5.64685 6.24462L5.80146 6.16604L5.95465 6.08909L6.10627 6.01361L6.25621 5.93945L6.40432 5.86645L6.5505 5.79446L6.69464 5.72331L6.83664 5.65284L6.97642 5.58289L7.11391 5.51328L7.24905 5.44387L7.38179 5.37448L7.51209 5.30496L7.63993 5.23516L7.76529 5.16491L7.88817 5.09409L8.00858 5.02253L8.12654 4.95011L8.24209 4.8767L8.35527 4.80218L8.46613 4.72643L8.57474 4.64934L8.68118 4.57082L8.78553 4.49079L8.88788 4.40916L8.98835 4.32587L9.08704 4.24087L9.18409 4.15413L9.27965 4.06563L9.37386 3.97538L9.46689 3.88341L9.55891 3.78977L9.65011 3.69452L9.74066 3.59774L9.83076 3.49953L9.92059 3.40002L10.0104 3.29933L10.1002 3.19762L10.1904 3.09506L10.2811 2.99183L10.3724 2.88812L10.4646 2.78413L10.5578 2.68009L10.6521 2.57622L10.7478 2.47276L10.8449 2.36995L10.9436 2.26804L11.0439 2.16728L11.1461 2.06793L11.2502 1.97025L11.3563 1.87449L11.4643 1.7809L11.5745 1.68976L11.6868 1.60129L11.8012 1.51575L11.9178 1.43336L12.0365 1.35436L12.1574 1.27897L12.2803 1.20737L12.4053 1.13977L12.5322 1.07633L12.6611 1.01723L12.7918 0.962583L12.9242 0.912529L13.0582 0.867164L13.1938 0.826568L13.3307 0.790803L13.4689 0.759912L13.6082 0.733927L13.7485 0.71286L13.8896 0.696714L14.0314 0.685472L14.1738 0.679105L14.3166 0.677569L14.4597 0.680806L14.603 0.688742L14.7462 0.701291L14.8893 0.718355L15.0321 0.739818L15.1745 0.765558L15.3164 0.795437L15.4577 0.829308L15.5982 0.867012L15.7378 0.908382L15.8765 0.953241L16.0141 1.0014L16.1506 1.05268L16.2859 1.10687L16.4198 1.16377L16.5524 1.22316L16.6837 1.28485L16.8134 1.34861L16.9418 1.41423L17.0686 1.48148L17.1939 1.55015L17.3176 1.62002L17.4399 1.69088L17.5607 1.76251L17.68 1.83471L17.7978 1.90726L17.9143 1.97996L18.0293 2.05263L18.1431 2.12507L18.2556 2.19711L18.367 2.26856L18.4772 2.33927L18.5864 2.40908L18.6947 2.47784L18.8021 2.54542L18.9088 2.61169L19.0148 2.67654L19.1202 2.73986L19.2252 2.80157L19.3299 2.86158L19.4343 2.91983L19.5385 2.97625L19.6428 3.03081L19.7471 3.08346L19.8516 3.13418L19.9564 3.18296L20.0616 3.22977L20.1674 3.27462L20.2737 3.3175L20.3807 3.35844L20.4886 3.39743L20.5974 3.43452L20.7072 3.46974L20.8181 3.50313L20.9303 3.53473L21.0437 3.56461L21.1585 3.59282L21.2747 3.61945L21.3925 3.64457L21.5118 3.66826L21.6329 3.69062L21.7556 3.71174L21.8801 3.73173L22.0064 3.7507L22.1346 3.76876L22.2647 3.78603L22.3966 3.80263L22.5305 3.81869L22.6664 3.83434L22.8042 3.84971L22.9439 3.86494L23.0856 3.88017L23.2292 3.89552L23.3748 3.91115L23.5222 3.9272L23.6714 3.94379L23.8225 3.96108L23.9754 3.97919L24.1299 3.99828L24.2861 4.01846L24.4439 4.03988L24.6033 4.06266L24.7641 4.08693L24.9263 4.11282L25.0898 4.14044L25.2546 4.16991L25.4204 4.20137L25.5873 4.23492L25.7552 4.27069L25.9238 4.30878L26.0931 4.34932L26.2629 4.39241L26.4332 4.43816L26.6037 4.48667L26.7744 4.53804L26.945 4.59236L27.1155 4.64972L27.2856 4.71021L27.4552 4.77391L27.6242 4.84088L27.7923 4.9112L27.9594 4.98491L28.1252 5.06209L28.2898 5.14276L28.4527 5.22697L28.6139 5.31476L28.7732 5.40613L28.9304 5.50112L29.0853 5.59972L29.2377 5.70194L29.3875 5.80777L29.5345 5.91719L29.6785 6.03017L29.8193 6.14669L29.9568 6.2667L30.0909 6.39016L30.2213 6.517L30.3479 6.64717L30.4706 6.7806L30.5892 6.9172L30.7037 7.05689L30.8139 7.19958L30.9196 7.34517L31.0209 7.49356L31.1175 7.64465L31.2095 7.7983L31.2967 7.95441L31.3792 8.11286L31.4567 8.27351L31.5294 8.43624L31.5971 8.60092Z" fill="url(#paint0_linear_1420_296)"/>
<path d="M10.4673 9.952L11.7273 23.1676M8.39743 12.9085L9.13608 20.6556M6.31024 15.637L6.57089 18.3707M13.0741 12.4626L13.8128 20.2097M15.7399 14.7379L16.0005 17.4716M22.116 8.84136L23.3761 22.057M20.0462 11.7978L20.7849 19.5449M17.959 14.5263L18.2197 17.26M24.7229 11.3519L25.4616 19.099M27.3886 13.6272L27.6493 16.3609" stroke="white" stroke-width="1.7136" stroke-linecap="round" stroke-linejoin="round"/>
</g>
<defs>
<linearGradient id="paint0_linear_1420_296" x1="-2.74877" y1="23.283" x2="29.3286" y2="23.5052" gradientUnits="userSpaceOnUse">
<stop stop-color="#48D7D7"/>
<stop offset="1" stop-color="#1B4A70"/>
</linearGradient>
</defs>
</svg>
